<svg width="726pt" height="140pt" viewBox="0 0 726 140" version="1.1" xmlns="http://www.w3.org/2000/svg"> <g> <path fill="#000000" opacity="1.00" d=" M 373.56 0.38 C 381.25 0.37 388.94 0.37 396.62 0.38 C 396.63 9.50 396.62 18.62 396.63 27.74 C 405.56 27.77 414.50 27.73 423.43 27.75 C 423.44 33.98 423.44 40.21 423.43 46.43 C 414.50 46.46 405.56 46.42 396.63 46.45 C 396.65 66.96 396.59 87.47 396.65 107.98 C 396.50 112.16 398.39 116.99 402.83 118.10 C 409.56 119.74 416.58 118.71 423.44 119.00 C 423.44 125.35 423.44 131.71 423.43 138.06 C 410.61 137.54 396.57 140.12 384.98 133.19 C 376.55 128.38 373.66 118.06 373.60 108.95 C 373.50 88.11 373.60 67.28 373.56 46.44 C 369.22 46.43 364.89 46.44 360.57 46.43 C 360.56 40.21 360.55 33.98 360.57 27.75 C 364.90 27.74 369.23 27.76 373.56 27.74 C 373.56 18.62 373.55 9.50 373.56 0.38 Z"></path> <path fill="#000000" opacity="1.00" d=" M 28.71 31.72 C 43.64 24.36 61.65 24.31 77.17 29.86 C 91.42 35.04 101.78 48.05 105.26 62.62 C 97.05 62.63 88.83 62.64 80.62 62.62 C 77.86 55.19 71.92 48.78 64.17 46.59 C 54.38 43.83 42.80 45.10 35.05 52.13 C 28.20 58.14 25.02 67.26 24.17 76.13 C 23.34 85.78 23.98 95.92 28.35 104.73 C 32.01 112.20 38.97 118.17 47.23 119.79 C 55.19 121.35 64.06 120.68 70.96 116.10 C 75.57 113.08 78.62 108.27 80.58 103.21 C 88.81 103.15 97.04 103.19 105.26 103.19 C 101.10 118.71 89.16 132.07 73.72 136.94 C 60.33 141.05 45.40 140.96 32.35 135.67 C 20.22 130.75 10.45 120.74 5.36 108.73 C -0.10 95.92 -0.78 81.38 1.89 67.81 C 4.97 52.65 14.66 38.61 28.71 31.72 Z"></path> <path fill="#000000" opacity="1.00" d=" M 133.66 43.60 C 143.65 31.62 159.50 25.10 175.02 26.03 C 188.73 26.26 202.04 32.93 210.58 43.62 C 210.54 38.33 210.56 33.04 210.57 27.75 C 218.25 27.74 225.93 27.75 233.61 27.75 C 233.65 64.52 233.62 101.28 233.62 138.05 C 225.94 138.07 218.25 138.06 210.57 138.06 C 210.56 132.63 210.54 127.21 210.58 121.79 C 202.10 132.60 188.71 139.30 174.98 139.75 C 162.12 140.58 149.01 136.21 139.36 127.63 C 127.25 117.05 120.79 100.97 120.43 85.05 C 119.77 70.27 123.89 54.94 133.66 43.60 M 169.50 46.72 C 161.41 48.60 154.16 53.73 149.74 60.76 C 144.45 68.73 143.14 78.70 144.15 88.05 C 145.12 97.32 149.45 106.35 156.61 112.41 C 167.57 121.93 184.99 122.46 196.51 113.62 C 207.98 105.12 212.18 89.71 210.09 76.03 C 208.71 65.13 202.23 54.71 192.38 49.58 C 185.44 45.86 177.14 44.92 169.50 46.72 Z"></path> <path fill="#000000" opacity="1.00" d=" M 287.57 27.38 C 296.77 25.45 306.44 25.46 315.59 27.63 C 325.51 29.99 334.80 36.17 339.64 45.30 C 342.37 50.24 343.45 55.86 343.87 61.43 C 336.27 61.45 328.68 61.45 321.08 61.43 C 320.51 54.50 315.61 48.28 308.87 46.43 C 301.85 44.55 293.81 44.60 287.33 48.18 C 282.33 50.89 280.19 57.79 283.20 62.72 C 285.82 66.67 290.31 68.84 294.67 70.31 C 305.88 74.22 317.71 76.40 328.45 81.57 C 334.95 85.03 341.09 90.25 343.59 97.38 C 346.59 106.15 345.49 116.41 340.04 124.01 C 334.09 132.48 324.10 137.27 314.10 138.93 C 299.78 141.24 284.14 139.34 272.09 130.80 C 263.37 124.80 257.29 114.88 256.92 104.19 C 264.78 104.18 272.64 104.19 280.50 104.18 C 281.30 111.41 287.05 117.15 293.80 119.25 C 299.77 121.09 306.29 120.93 312.29 119.30 C 317.42 117.86 322.54 113.78 322.73 108.06 C 323.17 103.86 320.53 99.82 316.71 98.18 C 303.44 91.89 288.52 90.11 275.27 83.78 C 268.49 80.19 262.23 74.52 260.01 66.96 C 257.73 59.04 258.47 50.04 263.05 43.05 C 268.43 34.52 277.96 29.53 287.57 27.38 Z"></path> <path fill="#000000" opacity="1.00" d=" M 482.59 26.76 C 496.60 24.62 511.54 26.78 523.70 34.31 C 536.39 41.97 545.11 55.43 547.82 69.92 C 550.89 86.13 548.31 103.97 538.29 117.40 C 521.98 140.11 488.13 146.19 464.02 132.96 C 450.16 125.51 440.52 111.31 437.77 95.92 C 435.16 81.49 436.61 65.88 443.97 53.00 C 451.77 38.76 466.64 29.10 482.59 26.76 M 484.46 46.76 C 473.82 49.08 465.14 57.56 461.98 67.90 C 459.02 77.63 459.16 88.26 461.95 98.01 C 464.64 107.14 471.72 114.95 480.74 118.12 C 489.59 121.19 499.72 120.38 507.97 115.92 C 516.37 111.46 522.25 102.98 524.37 93.80 C 525.94 86.69 525.94 79.24 524.48 72.11 C 522.68 63.55 517.62 55.53 510.15 50.86 C 502.60 46.10 493.12 44.70 484.46 46.76 Z"></path> <path fill="#000000" opacity="1.00" d=" M 594.80 40.22 C 609.28 23.42 636.34 21.77 654.44 33.47 C 666.48 41.32 672.48 55.90 672.75 69.91 C 672.91 92.63 672.77 115.34 672.81 138.06 C 665.27 138.07 657.73 138.07 650.19 138.06 C 650.16 117.39 650.22 96.72 650.16 76.06 C 650.13 67.79 648.15 58.90 642.01 52.95 C 635.51 46.51 625.63 44.91 616.88 46.30 C 609.34 47.39 602.25 51.96 598.70 58.77 C 595.14 65.25 594.71 72.81 594.81 80.04 C 594.82 99.38 594.82 118.72 594.81 138.06 C 587.21 138.07 579.61 138.06 572.01 138.06 C 572.00 101.29 572.00 64.52 572.01 27.75 C 579.61 27.75 587.21 27.74 594.81 27.76 C 594.81 31.91 594.83 36.06 594.80 40.22 Z"></path> <path fill="#000000" opacity="1.00" d=" M 707.41 110.60 C 716.00 108.05 725.66 115.03 725.61 124.05 C 726.45 132.56 718.51 140.44 710.00 139.40 C 701.87 139.15 695.37 131.01 696.66 123.02 C 697.13 117.15 701.70 111.95 707.41 110.60 Z"></path> </g> </svg>