<svg xmlns="http://www.w3.org/2000/svg" xmlns:xlink="http://www.w3.org/1999/xlink" width="46px" height="51px"
    viewBox="0 0 46 51">
    <path fill-rule="evenodd"
        d="M10.677,10.621 L35.322,10.621 L35.322,35.137 L10.677,35.137 L10.677,10.621 ZM25.462,12.257 L20.537,12.257 L20.537,15.530 L25.462,15.530 L25.462,12.257 ZM12.322,33.501 L33.677,33.501 L33.677,12.257 L27.107,12.257 L27.107,17.156 L18.892,17.156 L18.892,12.257 L12.322,12.257 L12.322,33.501 ZM25.543,28.059 L24.322,29.143 L23.555,28.290 L23.555,31.864 L21.910,31.864 L21.910,28.290 L21.153,29.143 L19.922,28.059 L22.737,24.916 L25.543,28.059 ZM32.385,28.059 L31.154,29.143 L30.397,28.290 L30.397,31.864 L28.752,31.864 L28.752,28.290 L27.985,29.143 L26.754,28.059 L29.570,24.916 L32.385,28.059 ZM44.355,22.878 C44.355,11.163 34.777,1.635 23.000,1.635 C11.222,1.635 1.645,11.163 1.645,22.878 C1.645,34.323 10.778,43.670 22.182,44.112 L22.182,38.892 L28.268,44.945 L22.182,50.999 L22.182,45.738 C9.880,45.307 -0.000,35.217 -0.000,22.878 C-0.000,10.259 10.314,-0.001 23.000,-0.001 C35.686,-0.001 46.000,10.259 46.000,22.878 L44.355,22.878 ZM23.817,47.044 L25.937,44.935 L23.817,42.827 L23.817,47.044 Z"></path>
</svg>